<?xml version="1.0" encoding="UTF-8"?><svg id="uuid-64ed9036-104b-442f-b5be-3516be0ff05f" xmlns="http://www.w3.org/2000/svg" width="361.35" height="382.59" viewBox="0 0 361.35 382.59"><path d="M33.23,26.4c1.51,0,3.03,0,4.54,0,1.88,19.1,3.73,38.21,5.61,57.32-.46,3.44-11.3,4.02-11.91,2.25,.54-19.84,1.11-39.73,1.76-59.57Z" style="fill:#969696;"/><path d="M33.23,26.4c-10.25-3.52-4.13-18.39,5.72-13.99,8.3,4.25,3.31,16.56-5.72,13.99Z" style="fill:#686868;"/><path d="M35.49,17.1c-.81,3.01,3.94,4.22,4.66,1.18,.81-3.01-3.94-4.22-4.66-1.18Z" style="fill:#fff; opacity:.2;"/><path d="M322.11,27.65c1.51,0,3.03,0,4.54,0,1.88,19.1,3.73,38.21,5.61,57.32-.46,3.44-11.3,4.02-11.91,2.25,.54-19.84,1.11-39.73,1.76-59.57Z" style="fill:#969696;"/><path d="M322.11,27.65c-10.25-3.52-4.13-18.39,5.72-13.99,8.3,4.25,3.31,16.56-5.72,13.99Z" style="fill:#686868;"/><path d="M324.37,18.35c-.81,3.01,3.94,4.22,4.66,1.18,.81-3.01-3.94-4.22-4.66-1.18Z" style="fill:#fff; opacity:.2;"/><ellipse cx="25.57" cy="121.23" rx="20.32" ry="26.52" style="fill:#969696;"/><path d="M10.51,118.79c-1.02-.27-.77-4.95,0-8.39,.41-1.82,1.13-4.87,3.52-7.85,1.93-2.4,5.17-5.05,6.23-4.33,1.22,.83-.88,5.88-1.35,7.04-.75,1.82-1.32,2.62-3.52,6.23-3.77,6.19-4.32,7.46-4.87,7.31Z" style="fill:#fff; opacity:.2;"/><path d="M33.94,82.95h32.91c6.06,0,10.98,4.92,10.98,10.98v53.48c0,6.06-4.92,10.98-10.98,10.98H33.94c-6.06,0-10.98-4.92-10.98-10.98v-53.48c0-6.06,4.92-10.98,10.98-10.98Z" style="fill:#686868;"/><ellipse cx="336.89" cy="120.82" rx="20.32" ry="26.52" style="fill:#969696;"/><path d="M351.94,118.38c1.02-.27,.77-4.95,0-8.39-.41-1.82-1.13-4.87-3.52-7.85-1.93-2.4-5.17-5.05-6.23-4.33-1.22,.83,.88,5.88,1.35,7.04,.75,1.82,1.32,2.62,3.52,6.23,3.77,6.19,4.32,7.46,4.87,7.31Z" style="fill:#fff; opacity:.2;"/><path d="M296.14,82.54h31.83c6.36,0,11.52,5.16,11.52,11.52v52.4c0,6.36-5.16,11.52-11.52,11.52h-31.83c-6.36,0-11.52-5.16-11.52-11.52v-52.4c0-6.36,5.16-11.52,11.52-11.52Z" transform="translate(624.12 240.52) rotate(180)" style="fill:#686868;"/><path d="M49.81,68.83c-10.31,18.67-11.32,43.36-11.64,51.2-.67,16.31-1.37,33.04,8.48,49.7,9.16,15.5,22.74,22.85,35.87,30.13,17.01,9.43,32.55,12.62,42.45,14.57,12.63,2.49,22.72,2.93,42.45,3.8,14.74,.65,25.39,.46,27.93,.41,13.79-.28,23.72-.47,35.42-2.31,10.55-1.66,29.3-4.73,49.42-16.47,10.63-6.2,23.79-13.88,33.69-29.62,11.92-18.96,11.84-38.05,11.79-49.65-.02-4.34-.38-30.69-12.41-51.51-26.78-46.36-100.52-46.49-131.56-46.54-28.67-.05-106.25-.13-131.88,46.29Z" style="fill:#767676;"/><path d="M175.07,60.6c1.5-.07,2.76,1,2.82,2.38s-1.1,2.55-2.6,2.62-2.76-1-2.82-2.38c-.06-1.38,1.1-2.55,2.6-2.62Z" style="fill:#969696;"/><path d="M188.35,60.68c1.5-.07,2.76,1,2.82,2.38s-1.1,2.55-2.6,2.62-2.76-1-2.82-2.38,1.1-2.55,2.6-2.62Z" style="fill:#969696;"/><path d="M233.28,35.4c0,2.84-23.17,5.14-51.76,5.14s-51.76-2.3-51.76-5.14,23.17-5.14,51.76-5.14,51.76,2.3,51.76,5.14Z" style="fill:#969696;"/><path d="M37.95,126.17c-.23,37.9,33.42,59.46,65.56,70.65,28.43,9.46,58.72,9.14,88.34,9.62,55.28,2.52,130.57-20.61,133.69-85.8,3.84,80.02-78.92,101.32-144.07,98.24-29.33-.79-59.57-1.2-86.96-12.95-36.47-14.82-60.21-37.98-56.78-79.76,.08,0,.15,0,.23,0Z" style="fill:#969696;"/><path d="M87.36,115.98v-28.3c.69-7.68,8.23-12.59,15.76-11.28,31.2,2.81,62.54,3.99,93.86,3.41,92.7-.54,78.75-25.73,79.39,72.66,.32,6.85-5.12,12.93-12.33,13.03-26.21-1.9-52.49-3.77-78.81-3.7-98.19-3.27-99.26,27.98-97.87-45.82Z" style="fill:#969696;"/><path d="M276.64,94.15c-1.21-7.81-9.26-11.86-16.59-10.56-9.63,.9-19.28,1.54-28.93,2.15-20.61,1.19-41.26,1.37-61.9,1.29-15.82-.13-31.63-1.09-47.42-2.02-11.68,.03-30.57-7.02-34.21,8.94-2.2-24.72,20.54-16.39,36.24-16.09,20.84,1.31,41.73,2.05,62.61,1.93,21.01-.01,42-1.1,62.95-2.59,14.99-1.77,28.93-3.13,27.25,16.95Z" style="fill:#686868;"/><path d="M231.01,124.6c-.45,28.45-35.59,28.45-36.03,0,.45-28.45,35.59-28.45,36.03,0Z" style="fill:#fff;"/><path d="M168.22,124.55c-.45,28.45-35.59,28.45-36.03,0,.45-28.45,35.59-28.45,36.03,0Z" style="fill:#fff;"/><path d="M122.73,89.59c6.02-11.74,20.89-18.1,33.54-14.37" style="fill:#fff;"/><path d="M205.9,74.47c13.49-2.5,28.21,4.09,35.33,15.82" style="fill:#fff;"/><g><path d="M64.28,250.7h23.09v77.59c0,7.13-1.58,13.43-4.73,18.9-3.16,5.46-7.61,9.69-13.36,12.66-5.75,2.98-12.24,4.46-19.47,4.46-11.85,0-21.09-3.01-27.71-9.04-6.62-6.03-9.93-14.56-9.93-25.59h23.25c0,5.49,1.15,9.54,3.46,12.16s5.95,3.93,10.93,3.93c4.41,0,7.93-1.51,10.55-4.54,2.62-3.03,3.93-7.34,3.93-12.93v-77.59Z" style="fill:#767676;"/><path d="M155.57,354.31c-5.49,6.67-13.09,10.01-22.78,10.01-8.93,0-15.74-2.57-20.44-7.7-4.7-5.13-7.1-12.65-7.2-22.55v-54.58h22.25v53.87c0,8.68,3.95,13.02,11.85,13.02s12.73-2.62,15.55-7.86v-59.03h22.32v83.29h-20.94l-.62-8.47Z" style="fill:#767676;"/><path d="M217.39,362.78h-22.32v-118.23h22.32v118.23Z" style="fill:#767676;"/><path d="M255.42,362.78h-20.44v-85.02h20.44v85.02Z" style="fill:#969696;"/><path d="M317.97,346.89h-28.09l-4.91,15.88h-21.9l31.18-85.02h19.27l31.42,85.02h-22.01l-4.96-15.88Zm-23.18-15.83h18.28l-9.17-29.49-9.11,29.49Z" style="fill:#969696;"/></g><path d="M153.04,176.74c1.06,1.9,5.76,9.79,16.95,13.83,1.69,.61,13.89,4.82,26.46-.25,8.23-3.32,12.19-8.82,13.57-10.99" style="fill:none; stroke:#fff; stroke-miterlimit:10;"/></svg>