<?xml version="1.0" encoding="utf-8"?>
<!-- Generator: Adobe Illustrator 16.0.0, SVG Export Plug-In . SVG Version: 6.00 Build 0)  -->
<!DOCTYPE svg PUBLIC "-//W3C//DTD SVG 1.1//EN" "http://www.w3.org/Graphics/SVG/1.1/DTD/svg11.dtd">
<svg version="1.1" id="Capa_1" xmlns="http://www.w3.org/2000/svg" xmlns:xlink="http://www.w3.org/1999/xlink" x="0px" y="0px"
	 width="50px" height="50px" viewBox="0 0 50 50" enable-background="new 0 0 50 50" xml:space="preserve">
<g>
	<g>
		<path fill-rule="evenodd" clip-rule="evenodd" fill="#FCB61D" d="M40.359,15.112c1.936-0.015,3.62,1.062,4.489,2.657
			c0.027-0.046,0.055-0.093,0.081-0.14c0.431-0.747,0.862-1.492,1.296-2.237c-0.496-0.591-1.089-1.128-1.771-1.612
			c0.559-0.885,1.134-1.683,1.58-2.546c0.439-0.853,0.746-1.774,1.112-2.666c-3.882,3.291-8.346,4.564-13.233,4.569
			c-4.891,0.003-9.356-1.298-13.218-4.784c0.558,2.179,1.534,3.884,2.791,5.439c-0.672,0.495-1.232,1.032-1.692,1.596
			c0.217,0.374,0.434,0.747,0.65,1.122c0.241,0.418,0.481,0.836,0.722,1.255c0.871-1.595,2.56-2.672,4.493-2.654
			c2.814,0.025,5.063,2.291,5.066,5.105c0.004,2.113-1.258,3.917-3.067,4.703c0.005,0.009,0.009,0.017,0.014,0.024
			c0.317,0.533,0.634,1.065,0.951,1.6c0.104,0.177,0.209,0.354,0.312,0.531c1.165-0.574,2.188-1.471,3.081-2.649
			c0.895,1.215,1.959,2.077,3.094,2.628c0.078-0.135,0.155-0.267,0.234-0.4c0.338-0.576,0.682-1.15,1.027-1.722
			c-1.818-0.784-3.088-2.604-3.083-4.721C35.296,17.396,37.546,15.132,40.359,15.112z"/>
		<path fill-rule="evenodd" clip-rule="evenodd" fill="#FCB61D" d="M34.008,31.979c-0.806-1.367-1.517-2.576-2.256-3.828
			c0.739-0.794,1.454-1.565,2.256-2.431c0.759,0.818,1.484,1.602,2.254,2.431C35.527,29.399,34.807,30.622,34.008,31.979z"/>
		<path fill-rule="evenodd" clip-rule="evenodd" fill="#010101" d="M41.198,18.207c-0.252,1.095,0.015,1.358,1.234,1.273
			c0.337,1.143,0.003,2.106-0.926,2.66c-0.884,0.527-2.041,0.354-2.749-0.409c-0.687-0.739-0.783-1.85-0.236-2.704
			C39.089,18.144,40.087,17.823,41.198,18.207z"/>
		<path fill-rule="evenodd" clip-rule="evenodd" fill="#010101" d="M25.562,19.45c1.214,0.143,1.484-0.132,1.282-1.24
			c0.992-0.387,1.984-0.11,2.581,0.717c0.606,0.842,0.547,2.005-0.145,2.775c-0.676,0.754-1.782,0.96-2.671,0.498
			C25.637,21.694,25.251,20.711,25.562,19.45z"/>
	</g>
</g>
<g>
	<path fill-rule="evenodd" clip-rule="evenodd" fill="#24135F" d="M25.101,9.601c0.311-0.124,0.645-0.13,0.968-0.187
		c0.662-0.115,1.328-0.198,1.991-0.299c0.871-0.133,1.74-0.27,2.609-0.408c0.83-0.133,1.66-0.27,2.49-0.403
		c0.923-0.147,1.845-0.29,2.767-0.438c0.55-0.088,1.097-0.186,1.645-0.279c0.172,0.467,0.236,0.961,0.351,1.442
		c0.115,0.491,0.194,0.99,0.311,1.481c0.042,0.172-0.019,0.202-0.162,0.23c-1.299,0.251-2.608,0.395-3.929,0.465
		c-3.101,0.166-6.075-0.37-8.939-1.553C25.166,9.639,25.134,9.618,25.101,9.601z"/>
	<g>
		<g>
			<path fill="#24135F" d="M34.814,1.286c0.374,0,0.748,0,1.121,0c0.253,0.21,0.398,0.479,0.476,0.799
				c0.393,1.667,0.73,3.347,1.05,5.029c-0.503,0.133-1.024,0.147-1.535,0.236c-1.013,0.175-2.029,0.326-3.046,0.485
				c-0.762,0.12-1.526,0.237-2.29,0.357c-0.939,0.147-1.878,0.298-2.818,0.443c-0.778,0.121-1.56,0.227-2.338,0.355
				c-0.392,0.065-0.796,0.086-1.171,0.237c-0.065-0.024-0.132-0.043-0.195-0.073c-1.615-0.768-3.13-1.699-4.545-2.792
				c-0.074-0.057-0.146-0.117-0.225-0.164c-0.02-0.012-0.097-0.092-0.087,0.065c0.031,0.467,0.133,0.923,0.155,1.395
				c0.035,0.763,0.251,1.509,0.419,2.257c-0.165-0.016-0.323,0.036-0.485,0.049c-0.647,0.052-1.288,0.157-1.929,0.259
				c-0.961,0.152-1.919,0.325-2.879,0.488c-1.066,0.18-2.132,0.366-3.2,0.538c-0.976,0.156-1.955,0.3-2.933,0.442
				c-0.544,0.079-1.087,0.16-1.597,0.381c-0.067,0.029-0.171,0.041-0.161,0.141c0.009,0.095,0.101,0.139,0.183,0.159
				c0.19,0.045,0.389,0.038,0.579,0.008c0.725-0.113,1.448-0.242,2.172-0.359c0.876-0.143,1.755-0.279,2.632-0.418
				c0.877-0.14,1.753-0.291,2.632-0.419c1.048-0.152,2.09-0.328,3.135-0.498c0.663-0.108,1.323-0.237,1.993-0.301
				c0.016,0.034,0.036,0.068,0.048,0.104c0.321,0.958,0.773,1.845,1.457,2.597c0.136,0.149,0.109,0.208-0.023,0.335
				c-2.432,2.341-3.407,5.187-2.78,8.503c1.013,5.347,6.541,8.701,11.958,6.875c0.176-0.059,0.246-0.036,0.34,0.118
				c0.864,1.427,1.737,2.848,2.608,4.269c0.119,0.193,0.239,0.385,0.367,0.592c1.051-1.677,2.085-3.326,3.114-4.979
				c0.094-0.151,0.172-0.183,0.347-0.125c1.554,0.507,3.132,0.591,4.732,0.259c0.123-0.025,0.169-0.015,0.198,0.127
				c0.393,1.93,0.724,3.872,1.282,5.766c0.049,0.164,0.021,0.333-0.084,0.487c-0.193,0.284-0.499,0.279-0.786,0.334
				c-0.123-0.023-0.248-0.019-0.371,0c-2.045,0.325-4.09,0.652-6.136,0.978c-2.36,0.375-4.72,0.747-7.08,1.118
				c-2.308,0.36-4.615,0.721-6.922,1.075c-1.71,0.263-3.421,0.521-5.132,0.775c-2.218,0.327-4.437,0.646-6.656,0.972
				c-0.076-0.786-0.162-1.569-0.272-2.35c-0.149-1.059-0.341-2.105-0.548-3.152c-0.156-0.79-0.34-1.572-0.444-2.371
				c-0.078-0.59-0.143-1.182-0.233-1.77c-0.077-0.505-0.194-1.002-0.272-1.506c-0.165-1.054-0.353-2.104-0.551-3.153
				c-0.111-0.591-0.257-1.177-0.303-1.782c-0.039-0.531-0.082-1.068-0.198-1.586c-0.119-0.529-0.229-1.048-0.282-1.593
				c-0.118-1.191-0.394-2.362-0.607-3.541c-0.185-1.027-0.361-2.056-0.535-3.084c-0.17-0.999-0.333-1.998-0.497-2.997
				c-0.132-0.801-0.265-1.602-0.393-2.403C5.147,8.491,5.038,7.702,4.903,6.918C4.81,6.378,4.686,5.842,4.576,5.305
				c0.065-0.054,0.145-0.049,0.221-0.06c1.479-0.189,2.957-0.378,4.435-0.566c1.671-0.214,3.342-0.427,5.013-0.642
				c1.61-0.207,3.219-0.415,4.828-0.623c1.516-0.195,3.033-0.392,4.55-0.588c1.601-0.207,3.201-0.411,4.804-0.624
				c1.814-0.241,3.631-0.488,5.444-0.739C34.188,1.42,34.515,1.42,34.814,1.286z"/>
			<path fill-rule="evenodd" clip-rule="evenodd" fill="#24135F" d="M41.156,42.385c0.115-0.013,0.23-0.029,0.347-0.035
				c0.165-0.011,0.336-0.021,0.408,0.179c0.074,0.213,0.077,0.413-0.092,0.586c-0.125,0.128-0.289,0.186-0.459,0.211
				c-1.557,0.237-3.115,0.472-4.674,0.705c-1.834,0.277-3.67,0.552-5.506,0.825c-1.719,0.255-3.44,0.511-5.16,0.764
				c-1.759,0.262-3.519,0.519-5.278,0.773c-1.775,0.26-3.551,0.513-5.326,0.769c-1.46,0.209-2.921,0.417-4.38,0.632
				C10.623,47.854,10.2,47.855,9.801,48c-0.389,0-0.778,0-1.167,0c-0.699-0.325-0.968-0.924-1.082-1.644
				c-0.141-0.898-0.316-1.789-0.475-2.683c-0.425-2.402-0.752-4.816-1.1-7.229c-0.185-1.282-0.336-2.572-0.547-3.851
				c-0.411-2.497-0.82-4.996-1.125-7.508c-0.285-2.336-0.689-4.653-1.017-6.983c-0.181-1.283-0.478-2.55-0.541-3.849
				c-0.005-0.094-0.005-0.2-0.086-0.275c0-1.073,0-2.146,0-3.22c0.055-0.025,0.042-0.079,0.044-0.121
				c0.049-0.868,0.156-1.729,0.284-2.587c0.126-0.843,0.378-1.643,0.854-2.36C4.016,5.43,4.236,5.253,4.576,5.305
				c0.11,0.537,0.234,1.073,0.327,1.614c0.135,0.784,0.245,1.573,0.371,2.358c0.127,0.801,0.26,1.603,0.393,2.403
				c0.165,0.999,0.327,1.998,0.497,2.997c0.174,1.028,0.35,2.057,0.535,3.084c0.213,1.178,0.489,2.349,0.607,3.541
				c0.053,0.545,0.163,1.064,0.282,1.593c0.116,0.518,0.159,1.055,0.198,1.586c0.045,0.605,0.191,1.191,0.303,1.782
				c0.198,1.05,0.386,2.1,0.551,3.153c0.079,0.504,0.195,1.001,0.272,1.506c0.09,0.588,0.156,1.18,0.233,1.77
				c0.104,0.799,0.289,1.581,0.444,2.371c0.207,1.047,0.398,2.094,0.548,3.152c0.11,0.78,0.196,1.563,0.272,2.35
				c-0.251,0.219-0.447,0.492-0.703,0.711c-0.411,0.349-0.716,0.775-0.832,1.315c-0.06,0.28-0.113,0.562-0.174,0.841
				c-0.221,1.011-0.293,2.024-0.115,3.052c0.115,0.664,0.249,0.822,0.914,0.766c0.686-0.061,1.366-0.186,2.047-0.292
				c1.348-0.208,2.694-0.425,4.041-0.634c1.248-0.196,2.497-0.382,3.744-0.579c1.118-0.178,2.233-0.361,3.35-0.542
				c1.301-0.209,2.602-0.42,3.902-0.626c1.057-0.167,2.112-0.332,3.17-0.49c1.325-0.198,2.653-0.383,3.979-0.579
				c0.973-0.143,1.944-0.301,2.917-0.448C38.151,42.831,39.653,42.608,41.156,42.385z"/>
		</g>
		<path fill="#010101" d="M20.606,42.702h0.012c0.017-0.003,0.03-0.005,0.045-0.007c-0.009,0.002-0.019,0.005-0.029,0.007
			c0.008,0,0.017,0.002,0.025,0.002c0.564,0.01,1.127,0.075,1.69,0.156c0.198,0.021,0.396,0.039,0.594,0.059
			c0.198,0.021,0.396,0.044,0.595,0.064l-0.326-2.555l-5.556,0.854l0.326,2.554c0.182-0.077,0.362-0.158,0.545-0.237
			c0.512-0.22,1.024-0.438,1.538-0.653c0.104-0.045,0.369-0.193,0.547-0.243C20.61,42.702,20.608,42.702,20.606,42.702z"/>
	</g>
</g>
</svg>
