<?xml version="1.0" encoding="utf-8"?>
<!-- Generator: Adobe Illustrator 16.0.0, SVG Export Plug-In . SVG Version: 6.00 Build 0)  -->
<!DOCTYPE svg PUBLIC "-//W3C//DTD SVG 1.1//EN" "http://www.w3.org/Graphics/SVG/1.1/DTD/svg11.dtd">
<svg version="1.1" id="Capa_1" xmlns="http://www.w3.org/2000/svg" xmlns:xlink="http://www.w3.org/1999/xlink" x="0px" y="0px"
	 width="50px" height="50px" viewBox="0 0 50 50" enable-background="new 0 0 50 50" xml:space="preserve">
<g>
	<g>
		<path fill="#24135F" d="M44.729,25.097c-0.328,0.855-0.649,1.712-0.983,2.565c-1.057,2.683-2.117,5.362-3.176,8.042
			c-0.188,0.479-0.375,0.957-0.566,1.434c-0.35,0.867-1.283,1.479-2.215,1.461c-0.546-0.01-1.091-0.014-1.636-0.014
			c-6.032-0.003-12.064-0.007-18.097-0.008c-3.947,0-7.894,0.006-11.841,0.006c-0.136,0-0.274-0.01-0.404-0.039
			c-0.163-0.039-0.26-0.157-0.24-0.322c0.026-0.218,0.062-0.441,0.143-0.645c1.05-2.668,2.108-5.332,3.165-7.996
			c0.463-1.168,0.926-2.333,1.388-3.5c0.271-0.685,0.714-1.192,1.451-1.382c0.208-0.053,0.427-0.084,0.642-0.084
			c10.555-0.004,21.11-0.003,31.665-0.003c0.07,0,0.143,0.004,0.211,0.008c0.229,0.013,0.41,0.096,0.494,0.326
			C44.729,24.996,44.729,25.047,44.729,25.097z M14.688,36.538c1.141,0,2.281,0.002,3.422,0c0.398-0.001,0.797-0.016,1.195-0.01
			c0.346,0.008,0.644-0.205,0.648-0.691c0.004-0.414,0.007-0.827,0.006-1.241c-0.002-0.46-0.183-0.675-0.634-0.756
			c-0.084-0.015-0.171-0.021-0.256-0.021c-0.656-0.002-1.312,0.002-1.968,0.002c-2.186,0-4.371,0-6.556,0.002
			c-0.151,0-0.303,0.011-0.453,0.025c-0.476,0.049-0.657,0.231-0.672,0.705c-0.015,0.459-0.014,0.92-0.009,1.379
			c0.003,0.305,0.154,0.49,0.452,0.562c0.141,0.034,0.288,0.053,0.433,0.055c0.364,0.004,0.728-0.008,1.09-0.009
			C12.488,36.537,13.588,36.538,14.688,36.538z M28.544,33.813c-0.748,0.002-1.379,0.637-1.375,1.381
			c0.004,0.742,0.638,1.357,1.396,1.355c0.73-0.002,1.35-0.63,1.352-1.369C29.917,34.44,29.286,33.812,28.544,33.813z M34.015,35.19
			c0-0.769-0.596-1.373-1.354-1.373c-0.757,0-1.38,0.608-1.383,1.354c-0.001,0.747,0.63,1.377,1.382,1.377
			C33.403,36.55,34.016,35.937,34.015,35.19z M35.39,35.179c-0.002,0.735,0.633,1.369,1.371,1.371
			c0.754,0.002,1.365-0.609,1.367-1.361c0-0.754-0.604-1.369-1.346-1.371C36.024,33.815,35.39,34.435,35.39,35.179z"/>
		<path fill="#24135F" d="M4.988,13.92c0.019-0.051,0.046-0.1,0.058-0.152c0.19-0.9,0.91-1.505,1.826-1.509
			c1.873-0.007,3.745-0.004,5.618-0.005c0.064,0,0.128,0.006,0.211,0.01c0,3.678,0,7.346,0,11.037c-0.17,0-0.34-0.01-0.507,0.001
			c-1.427,0.093-2.469,0.761-3.032,2.091c-0.451,1.066-0.867,2.148-1.296,3.226c-0.91,2.29-1.818,4.579-2.731,6.868
			c-0.027,0.07-0.097,0.121-0.147,0.182C4.988,28.419,4.988,21.17,4.988,13.92z"/>
		<path fill="#24135F" d="M21.468,39.84c0.468,0,0.911,0,1.354,0c0.218,0,0.435,0.007,0.651-0.003
			c0.128-0.004,0.166,0.04,0.165,0.165c-0.01,0.581-0.013,1.16-0.015,1.74c0,0.313-0.007,0.626,0.018,0.938
			c0.014,0.17,0.06,0.35,0.135,0.504c0.272,0.558,0.696,0.978,1.256,1.243c0.164,0.077,0.357,0.13,0.537,0.13
			c1.832,0.012,3.664,0.006,5.496,0.008c0.288,0,0.575-0.01,0.861,0.011c0.326,0.022,0.512,0.211,0.524,0.536
			c0.015,0.353,0.015,0.705-0.001,1.059c-0.014,0.327-0.205,0.527-0.533,0.551c-0.311,0.022-0.623,0.012-0.937,0.012
			c-1.55,0-3.099,0-4.647,0.002c-0.252,0-0.504,0.016-0.757,0.016c-0.415-0.001-0.749,0.16-1.023,0.469
			c-0.389,0.436-0.853,0.762-1.429,0.893c-0.981,0.223-1.824-0.062-2.502-0.782c-0.374-0.396-0.789-0.586-1.333-0.582
			c-1.357,0.008-2.715-0.015-4.072-0.021c-0.605-0.004-1.211,0-1.816-0.002c-0.136-0.002-0.272-0.012-0.407-0.029
			c-0.179-0.021-0.291-0.106-0.301-0.284c-0.026-0.451-0.047-0.905-0.033-1.356c0.008-0.275,0.202-0.451,0.483-0.475
			c0.32-0.025,0.645-0.025,0.967-0.023c0.338,0,0.676,0.021,1.014,0.021c1.176-0.001,2.352-0.007,3.528-0.011
			c0.252-0.002,0.505,0.002,0.755-0.021c0.183-0.02,0.377-0.043,0.537-0.123c0.369-0.184,0.74-0.376,1.029-0.682
			c0.424-0.447,0.534-1.006,0.529-1.596c-0.006-0.711-0.022-1.424-0.035-2.135C21.467,39.96,21.468,39.91,21.468,39.84z"/>
		<path fill="#24135F" d="M37.019,17.321c0.259-0.067,0.517-0.057,0.771,0.02c0.819,0.246,1.42,0.94,1.408,1.87
			c-0.015,1.291,0.004,2.582,0.008,3.873c0,0.059,0,0.118,0,0.184c-0.736,0-1.455,0-2.188,0
			C37.019,21.29,37.019,19.31,37.019,17.321z"/>
		<path fill="#FFFFFF" d="M32.419,12.962c0.012,0.164,0.021,0.328,0.032,0.492c-0.02,0.001-0.038,0.002-0.057,0.003
			c0-0.166,0-0.331,0-0.496C32.403,12.961,32.41,12.961,32.419,12.962z"/>
	</g>
	<g>
		<path fill="#FAB41E" d="M14.288,23.432c0-6.94,0.012-13.881-0.019-20.822c-0.003-0.663,0.132-0.8,0.796-0.797
			c6.861,0.031,13.721,0.019,20.583,0.019c0.271,0.473,0.24,0.992,0.24,1.509c-0.001,6.275-0.031,12.55,0.028,18.824
			c0.011,1.12-0.373,1.293-1.366,1.288C27.796,23.413,21.042,23.432,14.288,23.432z"/>
	</g>
</g>
</svg>
